<svg preserveAspectRatio="none" width="100%" height="100%" overflow="visible" style="display: block;" viewBox="0 0 15 15" fill="none" xmlns="http://www.w3.org/2000/svg">
<g id="chevron">
<path id="Union" d="M11.966 1.7196C12.2589 1.42685 12.7337 1.42675 13.0265 1.7196C13.3192 2.01246 13.3192 2.48731 13.0265 2.78015L8.42983 7.37585C8.3904 7.41528 8.34704 7.4486 8.3019 7.47741L8.29506 7.48522L13.0265 12.2157C13.3192 12.5085 13.3192 12.9834 13.0265 13.2762C12.7337 13.5691 12.2589 13.569 11.966 13.2762L11.3234 12.6337C11.3209 12.6313 11.318 12.6293 11.3156 12.6268L6.71889 8.03015C6.56876 7.87999 6.49633 7.68199 6.50014 7.48522C6.49643 7.28857 6.56883 7.09037 6.71889 6.9403L11.3156 2.3446C11.355 2.30521 11.3974 2.27085 11.4425 2.24206L11.966 1.7196Z" fill="var(--fill-0, #758795)"/>
<rect id="Rectangle 7" x="3" y="13.5" width="12" height="1.5" rx="0.75" transform="rotate(-90 3 13.5)" fill="var(--fill-0, #758795)"/>
</g>
</svg>
