<svg preserveAspectRatio="none" width="100%" height="100%" overflow="visible" style="display: block;" viewBox="0 0 15 15" fill="none" xmlns="http://www.w3.org/2000/svg">
<g id="chevron">
<path id="Union" d="M4.28005 1.7196C3.98714 1.42685 3.51234 1.42675 3.2195 1.7196C2.92685 2.01246 2.92681 2.48731 3.2195 2.78015L7.81618 7.37585C7.85561 7.41528 7.89897 7.4486 7.94411 7.47741L7.95094 7.48522L3.2195 12.2157C2.92681 12.5085 2.92686 12.9834 3.2195 13.2762C3.51235 13.5691 3.98714 13.569 4.28005 13.2762L4.92262 12.6337C4.9251 12.6313 4.92799 12.6293 4.93044 12.6268L9.52712 8.03015C9.67725 7.87999 9.74967 7.68199 9.74587 7.48522C9.74957 7.28857 9.67718 7.09037 9.52712 6.9403L4.93044 2.3446C4.89103 2.30521 4.84859 2.27085 4.80348 2.24206L4.28005 1.7196Z" fill="var(--fill-0, #758795)"/>
<rect id="Rectangle 7" width="12" height="1.5" rx="0.75" transform="matrix(4.37114e-08 -1 -1 -4.37114e-08 13.246 13.5)" fill="var(--fill-0, #758795)"/>
</g>
</svg>
