<svg preserveAspectRatio="none" width="100%" height="100%" overflow="visible" style="display: block;" viewBox="0 0 15 15" fill="none" xmlns="http://www.w3.org/2000/svg">
<g id="chevron">
<path id="Union" d="M9.21596 1.7196C9.50887 1.42685 9.98366 1.42675 10.2765 1.7196C10.5692 2.01246 10.5692 2.48731 10.2765 2.78015L5.67983 7.37585C5.6404 7.41528 5.59704 7.4486 5.5519 7.47741L5.54506 7.48522L10.2765 12.2157C10.5692 12.5085 10.5692 12.9834 10.2765 13.2762C9.98366 13.5691 9.50887 13.569 9.21596 13.2762L8.57338 12.6337C8.57091 12.6313 8.56802 12.6293 8.56557 12.6268L3.96889 8.03015C3.81876 7.87999 3.74633 7.68199 3.75014 7.48522C3.74643 7.28857 3.81883 7.09037 3.96889 6.9403L8.56557 2.3446C8.60498 2.30521 8.64742 2.27085 8.69253 2.24206L9.21596 1.7196Z" fill="var(--fill-0, #758795)"/>
</g>
</svg>
