<svg preserveAspectRatio="none" width="100%" height="100%" overflow="visible" style="display: block;" viewBox="0 0 11 12" fill="none" xmlns="http://www.w3.org/2000/svg">
<path id="Fill 3" fill-rule="evenodd" clip-rule="evenodd" d="M6.14021 11.9514C7.7798 11.9514 9.28605 11.3683 10.1696 10.3911C10.5123 10.0148 10.6651 9.64204 10.6651 9.18343C10.6651 8.34471 10.0703 7.75851 9.21792 7.75851C8.69244 7.75851 8.38628 7.92813 8.13056 8.11298C7.76211 8.38982 7.1454 8.85283 6.16463 8.85283C4.35075 8.85283 3.53929 7.40727 3.53929 5.97503C3.53929 4.54294 4.35075 3.09796 6.16463 3.09796C7.14847 3.09796 7.7646 3.56155 8.1348 3.84088C8.38686 4.02266 8.69303 4.19154 9.2185 4.19154C10.0703 4.19154 10.6651 3.60608 10.6651 2.76736C10.6651 2.30128 10.5171 1.93963 10.1702 1.55967C9.28547 0.583119 7.77922 0 6.14021 0C2.52489 0 0 2.45683 0 5.97503C0 9.49381 2.52489 11.9514 6.14021 11.9514" fill="var(--fill-0, white)"/>
</svg>
