<svg preserveAspectRatio="none" width="100%" height="100%" overflow="visible" style="display: block;" viewBox="0 0 15 15" fill="none" xmlns="http://www.w3.org/2000/svg">
<g id="chevron">
<path id="Union" d="M5.78013 1.7196C5.48723 1.42685 5.01243 1.42675 4.71958 1.7196C4.42694 2.01246 4.4269 2.48731 4.71958 2.78015L9.31626 7.37585C9.3557 7.41528 9.39905 7.4486 9.44419 7.47741L9.45103 7.48522L4.71958 12.2157C4.4269 12.5085 4.42694 12.9834 4.71958 13.2762C5.01243 13.5691 5.48723 13.569 5.78013 13.2762L6.42271 12.6337C6.42518 12.6313 6.42807 12.6293 6.43052 12.6268L11.0272 8.03015C11.1773 7.87999 11.2498 7.68199 11.246 7.48522C11.2497 7.28857 11.1773 7.09037 11.0272 6.9403L6.43052 2.3446C6.39111 2.30521 6.34868 2.27085 6.30357 2.24206L5.78013 1.7196Z" fill="var(--fill-0, #758795)"/>
</g>
</svg>
