<svg width="241" height="42" viewBox="0 0 241 42" fill="none" xmlns="http://www.w3.org/2000/svg">
<path d="M216.156 42C207.285 42 199.088 37.5371 194.229 30.0614C193.194 28.4688 193.642 26.336 195.23 25.2981C196.818 24.2602 198.944 24.709 199.979 26.3017C203.567 31.8208 209.614 35.1157 216.156 35.1157C222.698 35.1157 228.746 31.8208 232.334 26.3017C233.369 24.709 235.496 24.2599 237.083 25.2981C238.671 26.3363 239.119 28.4688 238.084 30.0614C233.224 37.5371 225.027 42 216.156 42ZM204.449 23.9028C207.725 23.9028 210.734 22.7365 212.499 20.7822C213.184 20.0296 213.489 19.2842 213.489 18.3668C213.489 16.6895 212.301 15.5172 210.598 15.5172C209.548 15.5172 208.936 15.8563 208.426 16.2259C207.69 16.7798 206.457 17.7057 204.498 17.7057C200.874 17.7057 199.253 14.8145 199.253 11.9502C199.253 9.08583 200.874 6.19588 204.498 6.19588C206.463 6.19588 207.694 7.12301 208.434 7.68172C208.938 8.04525 209.549 8.38317 210.599 8.38317C212.301 8.38317 213.489 7.21206 213.489 5.5347C213.489 4.60269 213.194 3.87929 212.501 3.11929C210.733 1.16623 207.724 0 204.449 0C197.226 0 192.182 4.91377 192.182 11.9502C192.182 18.9878 197.226 23.9028 204.449 23.9028ZM216.301 11.9502C216.301 5.13701 221.424 0 228.219 0C235.01 0 240.131 5.13701 240.131 11.9502C240.131 18.7645 235.01 23.9028 228.219 23.9028C221.424 23.9028 216.301 18.7645 216.301 11.9502ZM228.219 17.6068C231.466 17.6068 233.164 14.7608 233.164 11.9502C233.164 9.1395 231.466 6.29469 228.219 6.29469C224.969 6.29469 223.268 9.1395 223.268 11.9502C223.268 14.7608 224.969 17.6068 228.219 17.6068ZM30.1489 0C27.9666 0 26.1907 1.8079 26.1907 4.02934V16.4296H7.91888V4.02934C7.91888 1.77008 6.20616 0 4.01904 0C1.80273 0 0 1.8079 0 4.02934V37.4912C0 39.7127 1.80273 41.5206 4.01904 41.5206C6.20616 41.5206 7.91888 39.7505 7.91888 37.4912V23.8906H26.1907V37.4912C26.1907 39.7127 27.9666 41.5206 30.1489 41.5206C32.3324 41.5206 34.1083 39.7127 34.1083 37.4912V4.02934C34.1083 1.8079 32.3324 0 30.1489 0ZM75.9946 36.2238C76.25 36.7325 76.3814 37.2631 76.3814 37.7901C76.3814 39.6236 74.9679 41.5206 72.602 41.5206C71.0571 41.5206 70.0633 40.8789 69.2763 39.3748L65.9457 32.2262H48.6434L45.3189 39.3614C44.763 40.3763 43.8909 41.5206 41.9872 41.5206C39.6212 41.5206 38.2078 39.6236 38.2078 37.7901C38.2078 37.2631 38.3391 36.7325 38.5995 36.2116L53.902 2.10311C54.5187 0.727063 55.6913 0 57.2946 0C58.9513 0 60.0935 0.708762 60.6896 2.10799L75.9946 36.2238ZM57.2946 11.0913L51.5397 25.1849H63.0494L57.2946 11.0913ZM114.501 13.0847C114.501 20.903 109.087 25.5704 100.018 25.5704H88.9099V37.551C88.9099 39.7773 87.1704 41.5206 84.9505 41.5206C82.7305 41.5206 80.9922 39.7773 80.9922 37.551V4.44898C80.9922 2.22266 82.7305 0.47942 84.9505 0.47942H100.018C109.087 0.479423 114.501 5.1919 114.501 13.0847ZM101.035 7.81957H88.9099V18.1692H101.035C104.827 18.1692 106.524 15.616 106.524 13.0847C106.524 10.5485 104.806 7.81957 101.035 7.81957ZM152.706 13.0847C152.706 20.903 147.292 25.5704 138.223 25.5704H127.115V37.551C127.115 39.7773 125.376 41.5206 123.156 41.5206C120.936 41.5206 119.197 39.7773 119.197 37.551V4.44898C119.197 2.22266 120.936 0.47942 123.156 0.47942H138.223C147.292 0.479423 152.706 5.1919 152.706 13.0847ZM139.24 7.81957H127.115V18.1692H139.24C143.032 18.1692 144.729 15.616 144.729 13.0847C144.729 10.5485 143.011 7.81957 139.24 7.81957ZM185.66 0C184.418 0 183.417 0.531878 182.598 1.62735L171.967 16.1539L161.334 1.62369C160.517 0.531878 159.516 0 158.274 0C156.323 0 154.674 1.70786 154.674 3.73046C154.674 4.43556 154.925 5.21874 155.391 5.95312L168.007 23.2611V37.4912C168.007 39.7127 169.81 41.5206 172.026 41.5206C174.212 41.5206 175.925 39.7505 175.925 37.4912V23.2611L188.543 5.9519C189.011 5.30535 189.259 4.53681 189.259 3.73046C189.259 1.74324 187.577 0 185.66 0Z" fill="#322D80"/>
</svg>
